<svg width="48" height="42" viewBox="0 0 48 42" version="1.1" xmlns="http://www.w3.org/2000/svg" xmlns:xlink="http://www.w3.org/1999/xlink">
<title>MATECH 1</title>
<desc>Created using Figma</desc>
<g id="Canvas" transform="translate(-319 -305)">
<g id="MATECH 1">
<g id="Vector">
<use xlink:href="#path0_fill" transform="translate(343 325)" fill="#168BF7" fill-opacity="0.7"/>
</g>
<g id="Group">
<g id="Vector">
<use xlink:href="#path1_fill" transform="translate(319 305)" fill="#303033"/>
</g>
<g id="Vector">
<use xlink:href="#path2_fill" transform="translate(333 320)" fill="#303033"/>
</g>
<g id="Vector">
<use xlink:href="#path3_fill" transform="translate(324 309)" fill="#303033"/>
</g>
<g id="Vector">
<use xlink:href="#path4_fill" transform="translate(357 319)" fill="#303033"/>
</g>
</g>
</g>
</g>
<defs>
<path id="path0_fill" d="M 0 10C 2.761 10 5 7.761 5 5C 5 2.239 2.761 0 0 0L 0 10Z"/>
<path id="path1_fill" d="M 43 8L 43 6C 43 4.897 42.103 4 41 4L 39 4C 37.897 4 37 4.897 37 6L 37 8L 34.618 8L 31.789 2.34201C 31.133 1.02801 29.468 0 28 0L 20 0C 18.532 0 16.867 1.02801 16.211 2.34201L 13.382 8L 5 8C 2.243 8 0 10.243 0 13L 0 37C 0 39.757 2.243 42 5 42L 43 42C 45.757 42 48 39.757 48 37L 48 13C 48 10.243 45.757 8 43 8ZM 39 6L 41 6L 41 8L 39 8L 39 6ZM 46 37C 46 38.654 44.654 40 43 40L 5 40C 3.346 40 2 38.654 2 37L 2 13C 2 11.346 3.346 10 5 10L 14.618 10L 18 3.23599C 18.323 2.58899 19.276 2 20 2L 28 2C 28.724 2 29.677 2.58899 30 3.23599L 33.382 10L 43 10C 44.654 10 46 11.346 46 13L 46 37Z"/>
<path id="path2_fill" d="M 10 0C 4.486 0 0 4.486 0 10C 0 15.514 4.486 20 10 20C 15.514 20 20 15.514 20 10C 20 4.486 15.514 0 10 0ZM 10 18C 5.589 18 2 14.411 2 10C 2 5.589 5.589 2 10 2C 14.411 2 18 5.589 18 10C 18 14.411 14.411 18 10 18Z"/>
<path id="path3_fill" d="M 6 0L 0 0L 0 2L 6 2L 6 0Z"/>
<path id="path4_fill" d="M 2.5 0L 1.5 0C 0.673 0 0 0.673 0 1.5L 0 2.5C 0 3.327 0.673 4 1.5 4L 2.5 4C 3.327 4 4 3.327 4 2.5L 4 1.5C 4 0.673 3.327 0 2.5 0Z"/>
</defs>
</svg>
