<svg width="32" height="48" viewBox="0 0 32 48" version="1.1" xmlns="http://www.w3.org/2000/svg" xmlns:xlink="http://www.w3.org/1999/xlink">
<title>Matech2</title>
<desc>Created using Figma</desc>
<g id="Canvas" transform="translate(-315 153)">
<g id="Matech2">
<g id="Vector">
<use xlink:href="#path0_fill" transform="translate(326 -146.8)" fill="#168BF7"/>
</g>
<g id="Vector">
<use xlink:href="#path1_fill" transform="translate(315 -153)" fill="#303033"/>
</g>
</g>
</g>
<defs>
<path id="path0_fill" d="M 0 18L 4.16699 9.8L 0 9.8L 10.333 -3.05176e-06L 5.83301 7.8L 10 7.8L 0 18Z"/>
<path id="path1_fill" d="M 32 16C 32 7.178 24.822 0 16 0C 7.178 0 0 7.178 0 16C 0 22.136 3.511 27.71 9 30.383L 9 36C 7.897 36 7 36.897 7 38L 7 40C 7 41.103 7.897 42 9 42L 10 42L 10 43C 10 44.103 10.897 45 12 45L 13 45L 13 46C 13 47.103 13.897 48 15 48L 17 48C 18.103 48 19 47.103 19 46L 19 45L 20 45C 21.103 45 22 44.103 22 43L 22 42L 23 42C 24.103 42 25 41.103 25 40L 25 38C 25 36.897 24.103 36 23 36L 23 30.383C 28.489 27.71 32 22.136 32 16ZM 17 46L 15 46L 15 45L 17 45L 17 46ZM 20 43L 12 43L 12 42L 20 42L 20 43ZM 22.997 40L 9 40L 9 38L 23 38L 22.997 40ZM 21.6 28.828L 21 29.09L 21 36L 17 36L 17 30L 15 30L 15 36L 11 36L 11 29.089L 10.4 28.827C 5.29702 26.596 2 21.56 2 15.999C 2 8.279 8.28 1.999 16 1.999C 23.72 1.999 30 8.279 30 15.999C 30 21.561 26.702 26.596 21.6 28.828Z"/>
</defs>
</svg>
