<svg width="38" height="48" viewBox="0 0 38 48" version="1.1" xmlns="http://www.w3.org/2000/svg" xmlns:xlink="http://www.w3.org/1999/xlink">
<title>Matech3</title>
<desc>Created using Figma</desc>
<g id="Canvas" transform="translate(-437 153)">
<g id="Matech3">
<g id="Group">
<g id="Vector">
<use xlink:href="#path0_fill" transform="translate(437 -153)" fill="#303033"/>
</g>
<g id="Vector">
<use xlink:href="#path1_fill" transform="translate(461 -153)" fill="#303033"/>
</g>
</g>
<g id="Group">
<g id="Vector">
<use xlink:href="#path2_fill" transform="translate(463 -142)" fill="#168BF7"/>
</g>
<g id="Vector">
<use xlink:href="#path2_fill" transform="translate(463 -146)" fill="#168BF7"/>
</g>
</g>
</g>
</g>
<defs>
<path id="path0_fill" d="M 11 0L 3 0C 1.346 0 0 1.346 0 3L 0 45C 0 46.654 1.346 48 3 48L 11 48C 12.654 48 14 46.654 14 45L 14 3C 14 1.346 12.654 0 11 0ZM 12 45C 12 45.551 11.552 46 11 46L 3 46C 2.448 46 2 45.551 2 45L 2 43L 6 43L 6 41L 2 41L 2 39L 4 39L 4 37L 2 37L 2 35L 4 35L 4 33L 2 33L 2 31L 6 31L 6 29L 2 29L 2 27L 4 27L 4 25L 2 25L 2 23L 4 23L 4 21L 2 21L 2 19L 6 19L 6 17L 2 17L 2 15L 4 15L 4 13L 2 13L 2 11L 4 11L 4 9L 2 9L 2 7L 6 7L 6 5L 2 5L 2 3C 2 2.449 2.448 2 3 2L 11 2C 11.552 2 12 2.449 12 3L 12 45Z"/>
<path id="path1_fill" d="M 11 0L 3 0C 1.346 0 0 1.346 0 3L 0 37.234L 4.31403 45.953C 5.19603 47.734 6.376 48 7 48C 7.624 48 8.80397 47.734 9.68597 45.952L 14 37.234L 14 3C 14 1.346 12.654 0 11 0ZM 4.80902 42.443L 2.27399 37.321C 3.40799 35.866 5.14 35 7 35C 8.861 35 10.591 35.865 11.725 37.321L 9.19 42.443C 7.788 41.905 6.21202 41.905 4.80902 42.443ZM 3 2L 11 2C 11.552 2 12 2.449 12 3L 12 34.773C 10.854 33.852 9.478 33.248 8 33.063L 8 12L 6 12L 6 33.063C 4.523 33.248 3.147 33.852 2 34.773L 2 3C 2 2.449 2.448 2 3 2Z"/>
<path id="path2_fill" d="M 10 0L 0 0L 0 2L 10 2L 10 0Z"/>
</defs>
</svg>
