<svg width="48" height="44" viewBox="0 0 48 44" version="1.1" xmlns="http://www.w3.org/2000/svg" xmlns:xlink="http://www.w3.org/1999/xlink">
<title>MAT5</title>
<desc>Created using Figma</desc>
<g id="Canvas" transform="translate(-432 26)">
<g id="MAT5">
<g id="Group">
<g id="Vector">
<use xlink:href="#path0_fill" transform="translate(452 -12)" fill="#168BF7"/>
</g>
<g id="Vector">
<use xlink:href="#path0_fill" transform="translate(460 -12)" fill="#168BF7"/>
</g>
<g id="Vector">
<use xlink:href="#path1_fill" transform="translate(468 -12)" fill="#168BF7"/>
</g>
</g>
<g id="Group">
<g id="Vector">
<use xlink:href="#path2_fill" transform="translate(432 -26)" fill="#303033"/>
</g>
<g id="Vector">
<use xlink:href="#path3_fill" transform="translate(461.5 11.5)" fill="#303033"/>
</g>
<g id="Vector">
<use xlink:href="#path4_fill" transform="translate(443.5 11.5)" fill="#303033"/>
</g>
</g>
</g>
</g>
<defs>
<path id="path0_fill" d="M 4 0L 0 0L 0 10L 4 10L 4 0Z"/>
<path id="path1_fill" d="M 4 6L 0 10L 0 0L 4 0L 4 6Z"/>
<path id="path2_fill" d="M 45 8L 15 8C 14.448 8 14 7.551 14 7L 14 6L 14 3C 14 1.346 12.654 0 11 0L 0 0L 0 2L 0.101013 2C 0.506013 3.986 2.09298 5.539 4.09198 5.908C 4.52098 8.232 6.554 10 9 10L 12 10L 12 24L 14 24L 14 9.81599C 14.314 9.92799 14.648 10 15 10L 45 10C 45.552 10 46 10.449 46 11L 46 18C 46 18.845 45.484 20.188 44.919 20.818L 38.595 27.845C 38.051 28.449 36.815 29 36 29L 15 29C 13.346 29 12 30.346 12 32L 12 34.101C 9.721 34.566 8 36.585 8 39C 8 41.757 10.243 44 13 44C 15.414 44 17.434 42.279 17.899 40L 26.101 40C 26.566 42.279 28.585 44 31 44C 33.757 44 36 41.757 36 39C 36 36.243 33.757 34 31 34C 28.586 34 26.566 35.721 26.101 38L 17.899 38C 17.5 36.044 15.956 34.5 14 34.101L 14 32C 14 31.449 14.448 31 15 31L 36 31C 37.395 31 39.149 30.218 40.081 29.182L 46.405 22.155C 47.3 21.161 48 19.336 48 18L 48 11C 48 9.346 46.654 8 45 8ZM 2.18402 2L 11 2C 11.552 2 12 2.449 12 3L 12 4L 5 4C 3.698 4 2.59802 3.161 2.18402 2ZM 9 8C 7.698 8 6.59802 7.161 6.18402 6L 12 6L 12 7L 12 8L 9 8ZM 31 36C 32.654 36 34 37.346 34 39C 34 40.654 32.654 42 31 42C 29.346 42 28 40.654 28 39C 28 37.346 29.346 36 31 36ZM 16 39C 16 40.654 14.654 42 13 42C 11.346 42 10 40.654 10 39C 10 37.346 11.346 36 13 36C 14.654 36 16 37.346 16 39Z"/>
<path id="path3_fill" d="M 1.5 3C 2.327 3 3 2.327 3 1.5C 3 0.673 2.327 0 1.5 0C 0.673 0 0 0.673 0 1.5C 0 2.327 0.673 3 1.5 3ZM 1.5 1C 1.775 1 2 1.224 2 1.5C 2 1.776 1.775 2 1.5 2C 1.225 2 1 1.776 1 1.5C 1 1.224 1.225 1 1.5 1Z"/>
<path id="path4_fill" d="M 0 1.5C 0 2.327 0.673 3 1.5 3C 2.327 3 3 2.327 3 1.5C 3 0.673 2.327 0 1.5 0C 0.673 0 0 0.673 0 1.5ZM 2 1.5C 2 1.776 1.775 2 1.5 2C 1.225 2 1 1.776 1 1.5C 1 1.224 1.225 1 1.5 1C 1.775 1 2 1.224 2 1.5Z"/>
</defs>
</svg>
